TITLE ""
FILE "1Q_t_0788-0800.mp3" MP3
  TRACK 01 AUDIO
    TITLE "1Q_t_0788-0800_01"
    INDEX 01 00:00:00
  TRACK 02 AUDIO
    TITLE "1Q_t_0788-0800_02"
    INDEX 01 00:00:12
  TRACK 03 AUDIO
    TITLE "1Q_t_0788-0800_03"
    INDEX 01 00:01:43
  TRACK 04 AUDIO
    TITLE "1Q_t_0788-0800_04"
    INDEX 01 00:01:53
  TRACK 05 AUDIO
    TITLE "1Q_t_0788-0800_05"
    INDEX 01 00:03:38
  TRACK 06 AUDIO
    TITLE "1Q_t_0788-0800_06"
    INDEX 01 00:03:44
  TRACK 07 AUDIO
    TITLE "1Q_t_0788-0800_07"
    INDEX 01 00:07:48
  TRACK 08 AUDIO
    TITLE "1Q_t_0788-0800_08"
    INDEX 01 00:08:20
  TRACK 09 AUDIO
    TITLE "1Q_t_0788-0800_09"
    INDEX 01 00:09:48
  TRACK 10 AUDIO
    TITLE "1Q_t_0788-0800_10"
    INDEX 01 00:09:58
  TRACK 11 AUDIO
    TITLE "1Q_t_0788-0800_11"
    INDEX 01 00:12:15
  TRACK 12 AUDIO
    TITLE "1Q_t_0788-0800_12"
    INDEX 01 00:12:23
  TRACK 13 AUDIO
    TITLE "1Q_t_0788-0800_13"
    INDEX 01 00:17:01
  TRACK 14 AUDIO
    TITLE "1Q_t_0788-0800_14"
    INDEX 01 00:17:46
  TRACK 15 AUDIO
    TITLE "1Q_t_0788-0800_15"
    INDEX 01 00:18:51
  TRACK 16 AUDIO
    TITLE "1Q_t_0788-0800_16"
    INDEX 01 00:18:61
  TRACK 17 AUDIO
    TITLE "1Q_t_0788-0800_17"
    INDEX 01 00:21:22
  TRACK 18 AUDIO
    TITLE "1Q_t_0788-0800_18"
    INDEX 01 00:21:30
  TRACK 19 AUDIO
    TITLE "1Q_t_0788-0800_19"
    INDEX 01 00:27:07
  TRACK 20 AUDIO
    TITLE "1Q_t_0788-0800_20"
    INDEX 01 00:27:52
  TRACK 21 AUDIO
    TITLE "1Q_t_0788-0800_21"
    INDEX 01 00:28:71
  TRACK 22 AUDIO
    TITLE "1Q_t_0788-0800_22"
    INDEX 01 00:29:06
  TRACK 23 AUDIO
    TITLE "1Q_t_0788-0800_23"
    INDEX 01 00:31:42
  TRACK 24 AUDIO
    TITLE "1Q_t_0788-0800_24"
    INDEX 01 00:31:50
  TRACK 25 AUDIO
    TITLE "1Q_t_0788-0800_25"
    INDEX 01 00:38:42
  TRACK 26 AUDIO
    TITLE "1Q_t_0788-0800_26"
    INDEX 01 00:39:10
  TRACK 27 AUDIO
    TITLE "1Q_t_0788-0800_27"
    INDEX 01 00:40:37
  TRACK 28 AUDIO
    TITLE "1Q_t_0788-0800_28"
    INDEX 01 00:40:45
  TRACK 29 AUDIO
    TITLE "1Q_t_0788-0800_29"
    INDEX 01 00:43:16
  TRACK 30 AUDIO
    TITLE "1Q_t_0788-0800_30"
    INDEX 01 00:43:24
  TRACK 31 AUDIO
    TITLE "1Q_t_0788-0800_31"
    INDEX 01 00:50:10
  TRACK 32 AUDIO
    TITLE "1Q_t_0788-0800_32"
    INDEX 01 00:50:57
  TRACK 33 AUDIO
    TITLE "1Q_t_0788-0800_33"
    INDEX 01 00:52:03
  TRACK 34 AUDIO
    TITLE "1Q_t_0788-0800_34"
    INDEX 01 00:52:13
  TRACK 35 AUDIO
    TITLE "1Q_t_0788-0800_35"
    INDEX 01 00:54:43
  TRACK 36 AUDIO
    TITLE "1Q_t_0788-0800_36"
    INDEX 01 00:54:51
  TRACK 37 AUDIO
    TITLE "1Q_t_0788-0800_37"
    INDEX 01 01:00:58
  TRACK 38 AUDIO
    TITLE "1Q_t_0788-0800_38"
    INDEX 01 01:01:28
  TRACK 39 AUDIO
    TITLE "1Q_t_0788-0800_39"
    INDEX 01 01:02:54
  TRACK 40 AUDIO
    TITLE "1Q_t_0788-0800_40"
    INDEX 01 01:02:64
  TRACK 41 AUDIO
    TITLE "1Q_t_0788-0800_41"
    INDEX 01 01:04:24
  TRACK 42 AUDIO
    TITLE "1Q_t_0788-0800_42"
    INDEX 01 01:04:30
  TRACK 43 AUDIO
    TITLE "1Q_t_0788-0800_43"
    INDEX 01 01:09:70
  TRACK 44 AUDIO
    TITLE "1Q_t_0788-0800_44"
    INDEX 01 01:10:38
  TRACK 45 AUDIO
    TITLE "1Q_t_0788-0800_45"
    INDEX 01 01:11:48
  TRACK 46 AUDIO
    TITLE "1Q_t_0788-0800_46"
    INDEX 01 01:12:18
  TRACK 47 AUDIO
    TITLE "1Q_t_0788-0800_47"
    INDEX 01 01:13:50
  TRACK 48 AUDIO
    TITLE "1Q_t_0788-0800_48"
    INDEX 01 01:13:62
  TRACK 49 AUDIO
    TITLE "1Q_t_0788-0800_49"
    INDEX 01 01:15:06
  TRACK 50 AUDIO
    TITLE "1Q_t_0788-0800_50"
    INDEX 01 01:15:14
  TRACK 51 AUDIO
    TITLE "1Q_t_0788-0800_51"
    INDEX 01 01:19:65
  TRACK 52 AUDIO
    TITLE "1Q_t_0788-0800_52"
    INDEX 01 01:20:37
  TRACK 53 AUDIO
    TITLE "1Q_t_0788-0800_53"
    INDEX 01 01:21:56
  TRACK 54 AUDIO
    TITLE "1Q_t_0788-0800_54"
    INDEX 01 01:21:64
  TRACK 55 AUDIO
    TITLE "1Q_t_0788-0800_55"
    INDEX 01 01:25:58
  TRACK 56 AUDIO
    TITLE "1Q_t_0788-0800_56"
    INDEX 01 01:25:63
  TRACK 57 AUDIO
    TITLE "1Q_t_0788-0800_57"
    INDEX 01 01:31:48
  TRACK 58 AUDIO
    TITLE "1Q_t_0788-0800_58"
    INDEX 01 01:32:20
  TRACK 59 AUDIO
    TITLE "1Q_t_0788-0800_59"
    INDEX 01 01:33:43
  TRACK 60 AUDIO
    TITLE "1Q_t_0788-0800_60"
    INDEX 01 01:33:53
  TRACK 61 AUDIO
    TITLE "1Q_t_0788-0800_61"
    INDEX 01 01:37:45
  TRACK 62 AUDIO
    TITLE "1Q_t_0788-0800_62"
    INDEX 01 01:37:55
  TRACK 63 AUDIO
    TITLE "1Q_t_0788-0800_63"
    INDEX 01 01:42:64
  TRACK 64 AUDIO
    TITLE "1Q_t_0788-0800_64"
    INDEX 01 01:43:34
  TRACK 65 AUDIO
    TITLE "1Q_t_0788-0800_65"
    INDEX 01 01:44:61
  TRACK 66 AUDIO
    TITLE "1Q_t_0788-0800_66"
    INDEX 01 01:44:72
  TRACK 67 AUDIO
    TITLE "1Q_t_0788-0800_67"
    INDEX 01 01:47:26
  TRACK 68 AUDIO
    TITLE "1Q_t_0788-0800_68"
    INDEX 01 01:47:34
  TRACK 69 AUDIO
    TITLE "1Q_t_0788-0800_69"
    INDEX 01 01:54:16
  TRACK 70 AUDIO
    TITLE "1Q_t_0788-0800_70"
    INDEX 01 01:54:61
  TRACK 71 AUDIO
    TITLE "1Q_t_0788-0800_71"
    INDEX 01 01:55:66
  TRACK 72 AUDIO
    TITLE "1Q_t_0788-0800_72"
    INDEX 01 01:55:74
  TRACK 73 AUDIO
    TITLE "1Q_t_0788-0800_73"
    INDEX 01 01:58:22
  TRACK 74 AUDIO
    TITLE "1Q_t_0788-0800_74"
    INDEX 01 01:58:30
  TRACK 75 AUDIO
    TITLE "1Q_t_0788-0800_75"
    INDEX 01 02:04:30
  TRACK 76 AUDIO
    TITLE "1Q_t_0788-0800_76"
    INDEX 01 02:05:00
  TRACK 77 AUDIO
    TITLE "1Q_t_0788-0800_77"
    INDEX 01 02:06:31
  TRACK 78 AUDIO
    TITLE "1Q_t_0788-0800_78"
    INDEX 01 02:07:01
  TRACK 79 AUDIO
    TITLE "1Q_t_0788-0800_79"
    INDEX 01 02:08:14
  TRACK 80 AUDIO
    TITLE "1Q_t_0788-0800_80"
    INDEX 01 02:08:22
  TRACK 81 AUDIO
    TITLE "1Q_t_0788-0800_81"
    INDEX 01 02:09:72
  TRACK 82 AUDIO
    TITLE "1Q_t_0788-0800_82"
    INDEX 01 02:10:05
  TRACK 83 AUDIO
    TITLE "1Q_t_0788-0800_83"
    INDEX 01 02:15:59
